{
  "accessors": [
    {
      "bufferView": 2,
      "componentType": 5126,
      "count": 148,
      "max": [
        3.353748083114624,
        2.8910560607910156,
        5.366598129272461
      ],
      "min": [
        0.0,
        1.1814723014831543,
        0.9548060297966003
      ],
      "type": "VEC3"
    },
    {
      "bufferView": 2,
      "byteOffset": 1776,
      "componentType": 5126,
      "count": 148,
      "max": [
        0.9967182278633118,
        0.9282299280166626,
        0.9651828408241272
      ],
      "min": [
        -0.9621134400367737,
        -0.9894967079162598,
        -0.9725750684738159
      ],
      "type": "VEC3"
    },
    {
      "bufferView": 1,
      "componentType": 5126,
      "count": 148,
      "max": [
        0.9992799758911133,
        0.9993690252304077
      ],
      "min": [
        0.0003819999983534217,
        0.0003819999983534217
      ],
      "type": "VEC2"
    },
    {
      "bufferView": 0,
      "componentType": 5125,
      "count": 564,
      "type": "SCALAR"
    },
    {
      "bufferView": 2,
      "byteOffset": 3552,
      "componentType": 5126,
      "count": 65532,
      "max": [
        3.586111068725586,
        3.7130372524261475,
        6.657701015472412
      ],
      "min": [
        0.05041399970650673,
        0.8820221424102783,
        0.0002479999966453761
      ],
      "type": "VEC3"
    },
    {
      "bufferView": 2,
      "byteOffset": 789936,
      "componentType": 5126,
      "count": 65532,
      "max": [
        0.9999892711639404,
        0.9999975562095642,
        0.9999836087226868
      ],
      "min": [
        -0.9999879598617554,
        -0.9999979138374329,
        -0.9999865293502808
      ],
      "type": "VEC3"
    },
    {
      "bufferView": 1,
      "byteOffset": 1184,
      "componentType": 5126,
      "count": 65532,
      "max": [
        0.9980469942092896,
        0.9248160123825073
      ],
      "min": [
        0.0587799996137619,
        0.002735000103712082
      ],
      "type": "VEC2"
    },
    {
      "bufferView": 0,
      "byteOffset": 2256,
      "componentType": 5125,
      "count": 336930,
      "type": "SCALAR"
    },
    {
      "bufferView": 2,
      "byteOffset": 1576320,
      "componentType": 5126,
      "count": 50791,
      "max": [
        3.588912010192871,
        3.7130372524261475,
        6.6575798988342285
      ],
      "min": [
        0.04974399879574776,
        0.8820221424102783,
        0.0
      ],
      "type": "VEC3"
    },
    {
      "bufferView": 2,
      "byteOffset": 2185812,
      "componentType": 5126,
      "count": 50791,
      "max": [
        0.9999963641166687,
        0.9999975562095642,
        0.9999577403068542
      ],
      "min": [
        -0.9999879598617554,
        -0.9999960064888,
        -0.9999995231628418
      ],
      "type": "VEC3"
    },
    {
      "bufferView": 1,
      "byteOffset": 525440,
      "componentType": 5126,
      "count": 50791,
      "max": [
        0.9977239966392517,
        0.937080979347229
      ],
      "min": [
        0.0019529999699443579,
        0.0019529999699443579
      ],
      "type": "VEC2"
    },
    {
      "bufferView": 0,
      "byteOffset": 1349976,
      "componentType": 5125,
      "count": 217074,
      "type": "SCALAR"
    },
    {
      "bufferView": 2,
      "byteOffset": 2795304,
      "componentType": 5126,
      "count": 45277,
      "max": [
        3.0337729454040527,
        4.385011196136475,
        10.0
      ],
      "min": [
        0.28354400396347046,
        0.0,
        6.0393500328063965
      ],
      "type": "VEC3"
    },
    {
      "bufferView": 2,
      "byteOffset": 3338628,
      "componentType": 5126,
      "count": 45277,
      "max": [
        0.9999983906745911,
        0.9998879432678223,
        0.9999803900718689
      ],
      "min": [
        -0.9999791383743286,
        -0.9999876618385315,
        -0.9999978542327881
      ],
      "type": "VEC3"
    },
    {
      "bufferView": 1,
      "byteOffset": 931768,
      "componentType": 5126,
      "count": 45277,
      "max": [
        0.9931619763374329,
        0.9960939884185791
      ],
      "min": [
        0.0039059999398887157,
        0.0039059999398887157
      ],
      "type": "VEC2"
    },
    {
      "bufferView": 0,
      "byteOffset": 2218272,
      "componentType": 5125,
      "count": 255177,
      "type": "SCALAR"
    }
  ],
  "asset": {
    "extras": {
      "author": "iconic (https://sketchfab.com/iconic)",
      "license": "CC-BY-4.0 (http://creativecommons.org/licenses/by/4.0/)",
      "source": "https://sketchfab.com/3d-models/samsung-895ccecf1f69451096e89ff08340f07c",
      "title": "Samsung"
    },
    "generator": "Sketchfab-12.68.0",
    "version": "2.0"
  },
  "bufferViews": [
    {
      "buffer": 0,
      "byteLength": 3238980,
      "name": "floatBufferViews",
      "target": 34963
    },
    {
      "buffer": 0,
      "byteLength": 1293984,
      "byteOffset": 3238980,
      "byteStride": 8,
      "name": "floatBufferViews",
      "target": 34962
    },
    {
      "buffer": 0,
      "byteLength": 3881952,
      "byteOffset": 4532964,
      "byteStride": 12,
      "name": "floatBufferViews",
      "target": 34962
    }
  ],
  "buffers": [
    {
      "byteLength": 8414916,
      "uri": "scene.bin"
    }
  ],
  "images": [
    {
      "uri": "textures/mat0_baseColor.jpeg"
    },
    {
      "uri": "textures/mat1_baseColor.jpeg"
    },
    {
      "uri": "textures/mat2_baseColor.jpeg"
    }
  ],
  "materials": [
    {
      "doubleSided": true,
      "name": "mat0",
      "pbrMetallicRoughness": {
        "baseColorTexture": {
          "index": 0
        },
        "metallicFactor": 0.9407393292682927,
        "roughnessFactor": 0.6
      }
    },
    {
      "doubleSided": true,
      "name": "mat1",
      "pbrMetallicRoughness": {
        "baseColorTexture": {
          "index": 1
        },
        "metallicFactor": 0.0,
        "roughnessFactor": 0.6
      }
    },
    {
      "doubleSided": true,
      "name": "mat2",
      "pbrMetallicRoughness": {
        "baseColorTexture": {
          "index": 2
        },
        "metallicFactor": 0.0,
        "roughnessFactor": 0.6
      }
    }
  ],
  "meshes": [
    {
      "name": "Object_0",
      "primitives": [
        {
          "attributes": {
            "NORMAL": 1,
            "POSITION": 0,
            "TEXCOORD_0": 2
          },
          "indices": 3,
          "material": 0,
          "mode": 4
        }
      ]
    },
    {
      "name": "Object_1",
      "primitives": [
        {
          "attributes": {
            "NORMAL": 5,
            "POSITION": 4,
            "TEXCOORD_0": 6
          },
          "indices": 7,
          "material": 1,
          "mode": 4
        }
      ]
    },
    {
      "name": "Object_2",
      "primitives": [
        {
          "attributes": {
            "NORMAL": 9,
            "POSITION": 8,
            "TEXCOORD_0": 10
          },
          "indices": 11,
          "material": 1,
          "mode": 4
        }
      ]
    },
    {
      "name": "Object_3",
      "primitives": [
        {
          "attributes": {
            "NORMAL": 13,
            "POSITION": 12,
            "TEXCOORD_0": 14
          },
          "indices": 15,
          "material": 2,
          "mode": 4
        }
      ]
    }
  ],
  "nodes": [
    {
      "children": [
        1
      ],
      "matrix": [
        1.0,
        0.0,
        0.0,
        0.0,
        0.0,
        2.220446049250313e-16,
        -1.0,
        0.0,
        0.0,
        1.0,
        2.220446049250313e-16,
        0.0,
        0.0,
        0.0,
        0.0,
        1.0
      ],
      "name": "Sketchfab_model"
    },
    {
      "children": [
        2
      ],
      "matrix": [
        1.0,
        0.0,
        0.0,
        0.0,
        0.0,
        1.0,
        0.0,
        0.0,
        0.0,
        0.0,
        1.0,
        0.0,
        0.0,
        -4.385011196136475,
        0.0,
        1.0
      ],
      "name": "Samsung.obj.cleaner.gles"
    },
    {
      "children": [
        3,
        4,
        5,
        6
      ],
      "name": "Object_2"
    },
    {
      "mesh": 0,
      "name": "Object_3"
    },
    {
      "mesh": 1,
      "name": "Object_4"
    },
    {
      "mesh": 2,
      "name": "Object_5"
    },
    {
      "mesh": 3,
      "name": "Object_6"
    }
  ],
  "samplers": [
    {
      "magFilter": 9729,
      "minFilter": 9987,
      "wrapS": 10497,
      "wrapT": 10497
    }
  ],
  "scene": 0,
  "scenes": [
    {
      "name": "Sketchfab_Scene",
      "nodes": [
        0
      ]
    }
  ],
  "textures": [
    {
      "sampler": 0,
      "source": 0
    },
    {
      "sampler": 0,
      "source": 1
    },
    {
      "sampler": 0,
      "source": 2
    }
  ]
}
